<?xml version="1.0" encoding="utf-8"?>
<!-- Generator: Adobe Illustrator 18.0.0, SVG Export Plug-In . SVG Version: 6.00 Build 0)  -->
<!DOCTYPE svg PUBLIC "-//W3C//DTD SVG 1.1//EN" "http://www.w3.org/Graphics/SVG/1.1/DTD/svg11.dtd">
<svg version="1.1" id="bike" xmlns="http://www.w3.org/2000/svg" xmlns:xlink="http://www.w3.org/1999/xlink" x="0px" y="0px"
	 viewBox="0 0 700 400" enable-background="new 0 0 700 400" xml:space="preserve">

<path id="back" fill="#FFFFFF" d="M529,140c-70.1,0-127,56.9-127,127s56.9,127,127,127s127-56.9,127-127S599.1,140,529,140z
	 M529,372.6c-58.3,0-105.6-47.3-105.6-105.6c0-58.2,47-105.4,105.2-105.6v101.9l-26.4-98.5l-1,0.3l26.4,98.5l-51-88.3l-0.9,0.5
	l51,88.3l-72.1-72.2l-0.7,0.7l72.1,72.1l-88.3-51l-0.5,0.9l88.3,51L427,239.1l-0.3,1l98.5,26.4H423.4v1h101.9l-98.5,26.4l0.3,1
	l98.5-26.4l-88.3,51l0.5,0.9l88.3-51L454,341.4l0.7,0.7l72.1-72.1l-51,88.3l0.9,0.5l51-88.3L501.2,369l1,0.3l26.4-98.5v101.9h1v-102
	l26.4,98.5l1-0.3l-26.4-98.5l51,88.3l0.9-0.5l-51.2-88.3l72.1,72.1l0.7-0.7l-72.1-72.1l88.3,51l0.5-0.9l-88.3-51l98.5,26.4l0.3-1
	l-98.5-26.4h101.9v-1H532.7l98.5-26.4l-0.3-1l-98.5,26.4l88.3-51l-0.5-0.9l-88.3,51l72.1-72.1l-0.7-0.7l-72.1,72.1l51-88.3l-0.9-0.5
	l-51,88.3l26.4-98.5l-1-0.3l-26.4,98.5V161.4c58.1,0.3,105.2,47.5,105.2,105.6C634.6,325.3,587.3,372.6,529,372.6z"/>
<path id="front" fill="#FFFFFF" d="M166.2,140c-70.1,0-127,56.9-127,127s56.9,127,127,127s127-56.9,127-127S236.3,140,166.2,140z
	 M166.2,372.6c-58.3,0-105.6-47.3-105.6-105.6c0-58.2,47-105.4,105.2-105.6v101.9l-26.4-98.5l-1,0.3l26.4,98.5l-51-88.3l-0.9,0.5
	l51,88.3l-72.1-72.2l-0.7,0.7l72.1,72.1l-88.3-51l-0.5,0.9l88.3,51l-98.5-26.4l-0.3,1l98.5,26.4H60.6v1h101.9L64,293.9l0.3,1
	l98.5-26.4l-88.3,51l0.5,0.9l88.3-51l-72.1,72.1l0.7,0.7L164,270l-51,88.3l0.9,0.5l51-88.3L138.4,369l1,0.3l26.4-98.5v101.9h1v-102
	l26.4,98.5l1-0.3l-26.4-98.5l51,88.3l0.9-0.5l-51.2-88.3l72.1,72.1l0.7-0.7l-72.1-72.1l88.3,51l0.5-0.9l-88.3-51l98.5,26.4l0.3-1
	l-98.5-26.4h101.9v-1H169.9l98.5-26.4l-0.3-1l-98.5,26.4l88.3-51l-0.5-0.9l-88.3,51l72.1-72.1l-0.7-0.7l-72.1,72.1l51-88.3l-0.9-0.5
	l-51,88.3l26.4-98.5l-1-0.3l-26.4,98.5V161.4c58.1,0.3,105.2,47.5,105.2,105.6C271.8,325.3,224.5,372.6,166.2,372.6z" />
<path d="M532.9-495.7c0.1-0.2,0.3-0.3,0.4-0.5l0,0c0.1-0.2,0.2-0.3,0.3-0.5l0,0c0.1-0.2,0.2-0.4,0.3-0.6l0,0
	c0.1-0.2,0.2-0.4,0.2-0.6l0,0c0.1-0.2,0.1-0.4,0.2-0.6c0,0,0,0,0-0.1c0-0.2,0.1-0.4,0.1-0.5s0-0.1,0-0.2s0-0.3,0-0.4s0-0.2,0-0.3
	c0-0.1,0-0.2,0-0.3c0-0.2,0-0.4,0-0.6l0,0l0,0c-0.1-1-0.5-1.9-1-2.8l-92.1-176.7l9.3-36.7c0.1-0.5,0.2-1,0.2-1.5h23
	c3.7,0,6.7-3,6.7-6.7l0,0c0-3.7-3-6.7-6.7-6.7l-65.4,4c-3.7,0-6.7,1-6.7,4.7l0,0c0,3.7,3,4.7,6.7,4.7H437l-10,38.1H232.3l7.1-22.7
	c0.1-0.6,0.2-1.1,0.2-1.6c0-0.1,0-0.1,0-0.2v-0.1c0-0.1,0-0.1,0-0.2c-0.1-3.4-2.9-6.2-6.3-6.4c-0.1,0-0.1,0-0.2,0
	c-0.1,0-0.1,0-0.2,0h-34.5l-12.7-12.7c-2.6-2.6-6.9-2.6-9.5,0s-2.6,6.9,0,9.5l13.9,13.9c0.1,0.1,0.3,0.3,0.4,0.4
	c1.2,1.4,3,2.3,5,2.3h28l-63.9,204.5c-1,3.6,1.2,7.3,4.8,8.3s7.3-1.2,8.3-4.8l46-146.7l157.6,163.3c1.3,1.2,3,1.7,4.6,1.7h0.1
	c0.1,0,0.2,0,0.3,0c0.1,0,0.2,0,0.2,0c0.1,0,0.3,0,0.4,0l146.6-21.2C530.4-493.5,531.9-494.4,532.9-495.7L532.9-495.7z M517.4-505.3
	L390.3-487l46-175.4L517.4-505.3z M228-666.8h195.4l-45.9,174.9L223.3-651.7L228-666.8z"/>
<g id="frame">
	<path fill="#111111" d="M529,146.8c32.1,0,62.3,12.5,85,35.2s35.2,52.9,35.2,85s-12.5,62.3-35.2,85s-52.9,35.2-85,35.2
		s-62.3-12.5-85-35.2s-35.2-52.9-35.2-85s12.5-62.3,35.2-85S496.9,146.8,529,146.8 M529,136.8c-71.9,0-130.2,58.3-130.2,130.2
		S457.1,397.2,529,397.2S659.2,338.9,659.2,267S600.9,136.8,529,136.8L529,136.8z"/>
	<path fill="#111111" d="M166.2,146.8c32.1,0,62.3,12.5,85,35.2s35.2,52.9,35.2,85s-12.5,62.3-35.2,85s-52.9,35.2-85,35.2
		s-62.3-12.5-85-35.2S46,299.1,46,267s12.5-62.3,35.2-85S134.1,146.8,166.2,146.8 M166.2,136.8C94.3,136.8,36,195.1,36,267
		s58.3,130.2,130.2,130.2S296.4,338.9,296.4,267S238.1,136.8,166.2,136.8L166.2,136.8z"/>
	<path fill="#966848" d="M473.9,27.8l-65.4,4c-3.7,0-6.7,1-6.7,4.7l0,0c0,3.7,3,4.7,6.7,4.7h65.4c3.7,0,6.7-3,6.7-6.7l0,0
		C480.6,30.8,477.5,27.8,473.9,27.8z"/>
	<polygon fill="#CCCCCC" points="437.3,41.2 427.3,78.7 441.3,78.7 451.3,41.2 	"/>
	<path fill="#CCCCCC" d="M159.8,266.1c-1,3.6,1.2,7.3,4.8,8.3s7.3-1.2,8.3-4.8l45.8-147.4L208,111L159.8,266.1z"/>
	<path fill="#111111" d="M535.5,265.8c0-0.2,0-0.4,0-0.6l0,0l0,0c-0.1-1-0.5-1.9-1-2.8L441.3,78.7H427h-1.2H232.3h-14.2l0,0L208,111
		l10.7,11.2l157.6,163.3c1.3,1.2,3,1.7,4.6,1.7h0.1c0.1,0,0.2,0,0.3,0c0.1,0,0.2,0,0.2,0c0.1,0,0.3,0,0.4,0L529.5,273
		c1.7-0.2,3.2-1.1,4.3-2.4l0,0c0.1-0.2,0.3-0.3,0.4-0.5l0,0c0.1-0.2,0.2-0.3,0.3-0.5l0,0c0.1-0.2,0.2-0.4,0.3-0.6l0,0
		c0.1-0.2,0.2-0.4,0.2-0.6l0,0c0.1-0.2,0.1-0.4,0.2-0.6c0,0,0,0,0-0.1c0-0.2,0.1-0.4,0.1-0.5s0-0.1,0-0.2s0-0.3,0-0.4s0-0.2,0-0.3
		C535.5,265.9,535.5,265.9,535.5,265.8z M377.5,267.2L223.3,107.4l4.7-15.1h195.4L377.5,267.2z M390.3,272.1l46-175.4l82.1,164
		L390.3,272.1z"/>
	<path fill="#CCCCCC" d="M239.6,54.2c0-3.7-3-6.7-6.7-6.7h-30.1v13.4h20.7L218,78.7h14.2l7.1-22.7l0,0
		C239.5,55.4,239.6,54.8,239.6,54.2z"/>
	<path fill="#966848" d="M198.4,47.5l-12.7-12.7c-2.6-2.6-6.9-2.6-9.5,0s-2.6,6.9,0,9.5l13.9,13.9c0.1,0.1,0.3,0.3,0.4,0.4
		c1.2,1.4,3,2.3,5,2.3h7.2V47.5H198.4z"/>
</g>
</svg>
